<svg xmlns="http://www.w3.org/2000/svg" viewBox="0 0 20.65 15.42"><g id="Camada_2" data-name="Camada 2"><g id="Camada_1-2" data-name="Camada 1"><path id="Filmes" d="M20.15,13.42h-.72L20,11.89a1,1,0,0,0,.59-.91V4.4a1,1,0,0,0-1-1h-.15L20,2h.19c.53,0,.5-.45.5-1s0-1-.5-1H.54C0,0,0,.45,0,1s0,1,.5,1H1.83L1.31,3.4H1a1,1,0,0,0-1,1V11a1,1,0,0,0,1,1h.83L1.3,13.42H.54c-.52,0-.5.45-.5,1s0,1,.5,1H20.15c.53,0,.5-.45.5-1S20.68,13.42,20.15,13.42Zm-4.72,0L16,12h1.86l-.53,1.44Zm-4,0L12,12h1.86l-.53,1.44Zm-4,0L8,12H9.83L9.3,13.42ZM2,10V5.4H18.59V10ZM9.83,2,9.31,3.4H7.44L8,2Zm4,0-.52,1.4H11.44L12,2Zm3.48,1.4H15.44L16,2h1.87ZM4,2H5.83L5.31,3.4H3.44ZM4,12H5.83L5.3,13.42H3.43Z"/></g></g></svg>