<svg xmlns="http://www.w3.org/2000/svg" viewBox="0 0 20.4 14.84" class="w-64 h-64 fill-current">
  <g id="Camada_2" data-name="Camada 2">
    <g id="Camada_1-2" data-name="Camada 1">
      <g id="Canais" fill="currentColor">
        <path d="M19.4,11.23H1a1,1,0,0,1-1-1V1A1,1,0,0,1,1,0H19.4a1,1,0,0,1,1,1v9.23A1,1,0,0,1,19.4,11.23ZM2,9.23H18.4V2H2Z"/>
        <path d="M2.22,14.84c-.44,0-.51-.33-.64-.77s-.17-1,.36-1.19a32.13,32.13,0,0,1,8.15-1h.17a29.49,29.49,0,0,1,8,1c.52.16.5.69.34,1.22s-.41.85-.93.69a30.33,30.33,0,0,0-7.58-.91,30.86,30.86,0,0,0-7.6.92A1.45,1.45,0,0,1,2.22,14.84Z"/>
      </g>
    </g>
  </g>
</svg>
